<svg xmlns="http://www.w3.org/2000/svg" viewBox="0 0 100 100" width="100%" height="100%" fill="none">
  <rect width="100" height="100" rx="20" fill="#0A3D91" />
  <!-- Swoop Arrow in Gold -->
  <path d="M15,65 C30,35 60,20 85,20 L75,15 L90,20 L80,30 L78,25 C58,25 32,38 20,68 Z" fill="#D9A21B" />
  <!-- Team Icon -->
  <g transform="translate(18, 48)">
    <!-- Left Person -->
    <circle cx="16" cy="10" r="7" fill="#FFFFFF" opacity="0.9" />
    <path d="M4,38 C4,28 8,22 16,22 C24,22 28,28 28,38 Z" fill="#FFFFFF" opacity="0.9" />
    
    <!-- Right Person -->
    <circle cx="48" cy="10" r="7" fill="#FFFFFF" opacity="0.9" />
    <path d="M36,38 C36,28 40,22 48,22 C56,22 60,28 60,38 Z" fill="#FFFFFF" opacity="0.9" />
    
    <!-- Center Person -->
    <circle cx="32" cy="6" r="8" fill="#D9A21B" />
    <path d="M18,38 C18,24 22,18 32,18 C42,18 46,24 46,38 Z" fill="#D9A21B" />
  </g>
</svg>
